{"title":"UFC 190 Rousey vs Correia Weigh-Ins 720p","uid":12184436,"size":820840723,"categoryP":"other","categoryS":"other","magnet":"?xt=urn:btih:2ee64816d4ee4ff4f8a165b2568a51de5e41897c&amp;dn=UFC+190+Rousey+vs+Correia+Weigh-Ins+720p&amp;tr=udp%3A%2F%2Ftracker.openbittorrent.com%3A80&amp;tr=udp%3A%2F%2Fopen.demonii.com%3A1337&amp;tr=udp%3A%2F%2Ftracker.coppersurfer.tk%3A6969&amp;tr=udp%3A%2F%2Fexodus.desync.com%3A6969","seeders":0,"leechers":1,"uploader":"djupload","files":7,"time":1438521608,"description":"Video \nID : 1 \nFormat : AVC \nFormat/Info : Advanced Video Codec \nFormat profile : &lt;a class=&quot;__cf_email__&quot; href=&quot;/cdn-cgi/l/email-protection&quot; data-cfemail=&quot;f0b8999798b0bcc3dec1&quot;&gt;[email&amp;#160;protected]&lt;/a&gt;&lt;script data-cfhash='f9e31' type=&quot;text/javascript&quot;&gt;\n/* &lt;![CDATA[ */!function(){try{var t=&quot;currentScript&quot;in document?document.currentScript:function(){for(var t=document.getElementsByTagName(&quot;script&quot;),e=t.length;e--;)if(t[e].getAttribute(&quot;data-cfhash&quot;))return t[e]}();if(t&amp;&amp;t.previousSibling){var e,r,n,i,c=t.previousSibling,a=c.getAttribute(&quot;data-cfemail&quot;);if(a){for(e=&quot;&quot;,r=parseInt(a.substr(0,2),16),n=2;a.length-n;n+=2)i=parseInt(a.substr(n,2),16)^r,e+=String.fromCharCode(i);e=document.createTextNode(e),c.parentNode.replaceChild(e,c)}t.parentNode.removeChild(t);}}catch(u){}}()/* ]]&gt; */&lt;/script&gt; \nFormat settings, CABAC : Yes \nFormat settings, ReFrames : 1 frame \nFormat settings, GOP : M=1, N=60 \nCodec ID : avc1 \nCodec ID/Info : Advanced Video Coding \nDuration : 38mn 19s \nBit rate : 2 659 Kbps \nMaximum bit rate : 6 824 Kbps \nWidth : 1 280 pixels \nHeight : 720 pixels \nDisplay aspect ratio : 16:9 \nFrame rate mode : Constant \nFrame rate : 30.000 fps \nColor space : YUV \nChroma subsampling : 4:2:0 \nBit depth : 8 bits \nScan type : Progressive \nBits/(Pixel*Frame) : 0.096 \nStream size : 729 MiB (93%) \n\n\nAudio \nID : 2 \nFormat : AAC \nFormat/Info : Advanced Audio Codec \nFormat profile : LC \nCodec ID : 40 \nDuration : 38mn 19s \nBit rate mode : Variable \nBit rate : 192 Kbps \nMaximum bit rate : 205 Kbps \nChannel(s) : 2 channels \nChannel positions : Front: L R \nSampling rate : 44.1 KHz \nCompression mode : Lossy \nStream size : 52.6 MiB (7%)","torrent":{"xt":"urn:btih:2ee64816d4ee4ff4f8a165b2568a51de5e41897c","amp;dn":"UFC+190+Rousey+vs+Correia+Weigh-Ins+720p","amp;tr":["udp%3A%2F%2Ftracker.openbittorrent.com%3A80","udp%3A%2F%2Fopen.demonii.com%3A1337","udp%3A%2F%2Ftracker.coppersurfer.tk%3A6969","udp%3A%2F%2Fexodus.desync.com%3A6969"],"infoHash":"2ee64816d4ee4ff4f8a165b2568a51de5e41897c","infoHashBuffer":{"type":"Buffer","data":[46,230,72,22,212,238,79,244,248,161,101,178,86,138,81,222,94,65,137,124]},"announce":[],"urlList":[]}}